<svg id="PORTAL" xmlns="http://www.w3.org/2000/svg" viewBox="0 0 500 500"><defs><style>.cls-1{fill:#6b81be;}.cls-2{fill:#404b7c;}.cls-3{fill:#f68d88;}.cls-4{fill:#d2e4f0;}.cls-5{fill:#ecbdbb;}.cls-6{fill:#f9d4d4;}.cls-7{fill:#9ab3da;}.cls-8{fill:#fff;}</style></defs><title>Error copy</title><polygon class="cls-1" points="250.56 353.39 253.93 364.71 274.25 432.82 284.93 429.69 263.13 358.49 261.5 353.13 250.56 353.39"/><polygon class="cls-2" points="250.56 353.39 253.93 364.71 263.13 358.49 261.5 353.13 250.56 353.39"/><polygon class="cls-1" points="258.89 353.39 255.52 364.71 235.19 432.82 224.52 429.69 246.32 358.49 247.95 353.13 258.89 353.39"/><polygon class="cls-2" points="258.89 353.39 255.52 364.71 246.32 358.49 247.95 353.13 258.89 353.39"/><polygon class="cls-1" points="377.8 353.39 381.18 364.71 401.5 432.82 412.17 429.69 390.37 358.49 388.74 353.13 377.8 353.39"/><polygon class="cls-2" points="377.8 353.39 381.18 364.71 390.37 358.49 388.74 353.13 377.8 353.39"/><polygon class="cls-1" points="386.13 353.39 382.76 364.71 362.44 432.82 351.76 429.69 373.56 358.49 375.2 353.13 386.13 353.39"/><polygon class="cls-2" points="386.13 353.39 382.76 364.71 373.56 358.49 375.2 353.13 386.13 353.39"/><polygon class="cls-3" points="402.64 358.08 238.06 355.48 238.06 326.57 402.64 323.97 402.64 358.08"/><polygon class="cls-1" points="238.06 326.57 238.06 341.18 250.61 326.37 238.06 326.57"/><polygon class="cls-1" points="274.28 326 248.53 355.64 266.76 355.93 293.55 325.69 274.28 326"/><polygon class="cls-1" points="319.5 325.28 291.27 356.32 311.25 356.64 340.68 324.95 319.5 325.28"/><polygon class="cls-1" points="369.25 324.5 338.17 357.06 360.15 357.41 392.62 324.13 369.25 324.5"/><polygon class="cls-1" points="402.64 345.14 389.85 357.88 402.64 358.08 402.64 345.14"/><path class="cls-4" d="M236.6,449.73a10,10,0,0,1-5.33-1.7c-2.37,1.34-5.9,1.83-10.22-.26a0.43,0.43,0,0,1,.37-0.77c3.83,1.86,7,1.54,9.13.45a4.6,4.6,0,0,1-1.49-2.95,3.91,3.91,0,0,1,1.78-3.7,2.37,2.37,0,0,1,2.65.16c1.35,1,1.54,2.77.47,4.53a7.05,7.05,0,0,1-1.91,2,8.77,8.77,0,0,0,1.78.84c3,1.06,5.68.42,7.34-1.74a6.4,6.4,0,0,0,1.1-2.26,8.66,8.66,0,0,1-1.59-.47c-2.93-1.17-3.16-2.83-3.12-3.49a2.23,2.23,0,0,1,1.63-2,3.09,3.09,0,0,1,3.31,1.58,5.39,5.39,0,0,1,.78,3.67c4.16,0.34,7.27-2.94,7.3-3a0.43,0.43,0,0,1,.63.59s-3.48,3.64-8.08,3.24a7.21,7.21,0,0,1-1.27,2.66A6.42,6.42,0,0,1,236.6,449.73Zm-4.55-8.41a1.61,1.61,0,0,0-.79.22,3,3,0,0,0-1.34,2.87,3.83,3.83,0,0,0,1.41,2.57,6.31,6.31,0,0,0,1.9-1.94c0.65-1.08.93-2.54-.24-3.4A1.56,1.56,0,0,0,232.06,441.32Zm7.77-2.16a1.5,1.5,0,0,0-.4.06,1.37,1.37,0,0,0-1,1.23c-0.05,1,.91,2,2.58,2.65a7.86,7.86,0,0,0,1.43.42,4.52,4.52,0,0,0-.64-3.07A2.55,2.55,0,0,0,239.83,439.16Z"/><path class="cls-4" d="M345.56,439c-1.25,0-5.14-.24-7.74-3.11a7.2,7.2,0,0,1-2.74,1.1c-3.08.54-5.8-1-7.48-4.14a9.18,9.18,0,0,1-.91-2.39c-2.65-.62-5.58-2.65-7.34-7.11a0.43,0.43,0,1,1,.8-0.31c1.56,4,4.09,5.86,6.41,6.51a4.6,4.6,0,0,1,.91-3.18,3.9,3.9,0,0,1,3.81-1.51,2.37,2.37,0,0,1,1.84,1.92c0.33,1.64-.74,3.08-2.72,3.66a7,7,0,0,1-2.78.2,8.76,8.76,0,0,0,.74,1.83c1.49,2.81,3.88,4.16,6.57,3.69a6.39,6.39,0,0,0,2.34-.91,8.77,8.77,0,0,1-.85-1.42c-1.36-2.84-.4-4.22.07-4.69a2.22,2.22,0,0,1,2.57-.38,3.08,3.08,0,0,1,1.36,3.41,5.39,5.39,0,0,1-1.92,3.22c2.85,3.06,7.34,2.76,7.39,2.76a0.43,0.43,0,0,1,.06.86h-0.4ZM338,429.35a1.34,1.34,0,0,0-.94.38c-0.71.69-.67,2.08,0.1,3.7a7.83,7.83,0,0,0,.77,1.28,4.51,4.51,0,0,0,1.61-2.69,2.28,2.28,0,0,0-.9-2.52A1.4,1.4,0,0,0,338,429.35Zm-10.58.38a6.32,6.32,0,0,0,2.71-.14c1.21-.36,2.41-1.24,2.12-2.67a1.51,1.51,0,0,0-1.2-1.25,3,3,0,0,0-2.93,1.2A3.82,3.82,0,0,0,327.45,429.73Z"/><path class="cls-4" d="M369.42,424.55h-0.52a0.43,0.43,0,0,1-.41-0.44,0.42,0.42,0,0,1,.44-0.41c3.52,0.12,5.84-1.14,7.14-2.68a4,4,0,0,1-2.11-1.78,3.39,3.39,0,0,1,.12-3.55,2.07,2.07,0,0,1,2.18-.81c1.42,0.31,2.2,1.66,2,3.43a6,6,0,0,1-.75,2.18,7.55,7.55,0,0,0,1.57,0c2.67-.2,4.51-1.59,5-3.81a5.38,5.38,0,0,0,.1-2,7.47,7.47,0,0,1-1.34.17c-2.71.1-3.48-1.15-3.69-1.69a2,2,0,0,1,.6-2.2,2.68,2.68,0,0,1,3.19.09,4.59,4.59,0,0,1,1.88,2.55,8.49,8.49,0,0,0,4.54-4.75,0.43,0.43,0,1,1,.81.28s-1.44,4-5.15,5.3a6.24,6.24,0,0,1-.1,2.48c-0.64,2.6-2.76,4.23-5.82,4.46a8,8,0,0,1-2.15-.1C375.61,423,373.18,424.55,369.42,424.55Zm6.33-8.89a1.21,1.21,0,0,0-1,.52,2.51,2.51,0,0,0-.06,2.62,3.17,3.17,0,0,0,1.89,1.47,5.27,5.27,0,0,0,.78-2.09c0.13-1-.14-2.23-1.3-2.49A1.5,1.5,0,0,0,375.74,415.66Zm5.4-4.36a1.3,1.3,0,0,0-.85.29,1.09,1.09,0,0,0-.34,1.23c0.29,0.76,1.34,1.18,2.85,1.14a6.7,6.7,0,0,0,1.18-.15,3.75,3.75,0,0,0-1.5-2.06A2.62,2.62,0,0,0,381.14,411.3Z"/><polygon class="cls-5" points="374.51 435.29 395.74 436.4 395.08 442.71 371.65 440.76 374.51 435.29"/><polygon class="cls-3" points="408.75 433.73 395.08 442.71 395.74 436.4 408.75 431.26 408.75 433.73"/><polygon class="cls-6" points="374.51 435.29 398.47 429.43 408.75 431.26 395.74 436.4 374.51 435.29"/><polygon class="cls-3" points="340.27 444.93 336.62 447.79 339.1 449.49 355.11 449.22 358.76 446.1 356.02 444.02 340.27 444.93"/><polygon class="cls-5" points="339.62 443.37 340.27 444.93 336.62 447.79 337.66 444.28 339.62 443.37"/><polygon class="cls-6" points="356.02 444.02 352.9 442.58 339.62 443.37 340.27 444.93 356.02 444.02"/><polygon class="cls-6" points="319.05 410.6 332.85 415.02 352.81 412.51 338.58 409.12 319.05 410.6"/><polygon class="cls-3" points="332.06 417.8 332.85 415.02 352.81 412.51 352.2 415.63 332.06 417.8"/><path class="cls-5" d="M319,410.6l-1.91,3.21s14.76,4.17,14.93,4a23.06,23.06,0,0,0,.78-2.78Z"/><path class="cls-3" d="M291,415.11s-1.82,3.39-1.56,3.39l18.66,0.26-4.95-3.56Z"/><polygon class="cls-6" points="295 413.2 302.73 413.63 303.16 415.2 291.01 415.11 295 413.2"/><polygon class="cls-5" points="308.11 418.76 302.73 413.63 303.16 415.2 308.11 418.76"/><polygon class="cls-6" points="255.2 432.89 263.27 439.14 278.73 437.92 278.29 432.28 273.17 431.33 255.2 432.89"/><polygon class="cls-3" points="254.85 436.19 255.2 432.89 263.27 439.14 263.45 442.52 254.85 436.19"/><polygon class="cls-5" points="278.73 437.92 263.27 439.14 263.45 442.52 278.46 441.48 278.73 437.92"/><rect class="cls-7" x="229.81" y="118.25" width="172.56" height="117.7" rx="6.75" ry="6.75"/><polygon class="cls-6" points="326.81 118.25 306.98 118.25 289.71 149.84 261.76 164.6 260.89 168.77 254.99 177.45 253.6 197.24 229.81 206.56 229.81 217.34 281.2 198.97 326.81 118.25"/><polygon class="cls-3" points="260.89 168.77 266.7 174.24 261.76 164.6 260.89 168.77"/><polygon class="cls-5" points="253.6 197.24 257.85 204.44 266.7 174.24 254.99 177.45 253.6 197.24"/><path class="cls-5" d="M261.76,164.6s4.86,9.37,4.95,9.64,24.74-20.83,24.74-20.83l-1.74-3.56Z"/><polygon class="cls-6" points="257.85 204.44 253.6 197.24 229.81 206.56 229.81 207.19 252.38 200.45 257.85 204.44"/><path class="cls-3" d="M236.84,236h158.5a7,7,0,0,0,7-7V125.28a7,7,0,0,0-7-7H314.2L291.44,153.4,266.7,174.24l-8.85,30.21-28,12.54v11.94A7,7,0,0,0,236.84,236Z"/><polygon class="cls-7" points="332.59 115.12 409.41 204.96 402.9 219.81 313.84 116.95 332.59 115.12"/><polygon class="cls-1" points="335.68 118.74 330.14 135.78 338.26 145.15 343.77 128.2 335.68 118.74"/><polygon class="cls-1" points="354.42 140.65 348.94 157.49 357.06 166.87 362.51 150.11 354.42 140.65"/><polygon class="cls-1" points="373.16 162.57 367.75 179.21 375.87 188.59 381.25 172.03 373.16 162.57"/><polygon class="cls-1" points="391.9 184.49 386.55 200.93 394.67 210.31 399.99 193.95 391.9 184.49"/><path class="cls-7" d="M227,207.38s97.71-3.82,178.34,7l-2.62,18.71s-112-11.54-175.48-8.44Z"/><path class="cls-1" d="M242.42,207l9.1,17.18q5.92,0,12.06.1l-9.24-17.45C249.89,206.85,245.9,206.91,242.42,207Z"/><path class="cls-1" d="M227,207.38l0.24,17.3c2.86-.14,5.81-0.25,8.85-0.33l-9-17H227Z"/><path class="cls-1" d="M270.12,206.73l9.48,17.9q6.1,0.19,12.25.45l-9.69-18.3C278,206.75,274,206.74,270.12,206.73Z"/><path class="cls-1" d="M298.11,207l10,18.83c4.16,0.22,8.3.45,12.38,0.7l-10.18-19.23Q304.06,207.14,298.11,207Z"/><path class="cls-1" d="M326.4,207.9l10.44,19.71c4.28,0.29,8.45.59,12.49,0.89l-10.6-20Q332.5,208.15,326.4,207.9Z"/><path class="cls-1" d="M355.21,209.47L366,229.81c4.52,0.37,8.73.73,12.58,1.06l-10.83-20.46Q361.45,209.9,355.21,209.47Z"/><path class="cls-1" d="M403.75,225.63l-6.49-12.25q-6.34-.77-12.77-1.43l10.82,20.44c4.72,0.45,7.38.73,7.38,0.73Z"/><path class="cls-8" d="M323.92,195.33H278.75a2.6,2.6,0,0,1-2.17-4l22.59-33.85a2.61,2.61,0,0,1,4.33,0l22.59,33.85A2.6,2.6,0,0,1,323.92,195.33Zm-40.31-5.21h35.44l-17.72-26.56Z"/><path class="cls-8" d="M301.34,182.13h0a1.87,1.87,0,0,1-1.87-1.77l-0.42-7.89a2.29,2.29,0,0,1,2.29-2.41h0a2.29,2.29,0,0,1,2.29,2.41l-0.42,7.89A1.87,1.87,0,0,1,301.34,182.13Z"/><circle class="cls-8" cx="301.34" cy="186.13" r="2"/><circle class="cls-5" cx="241.4" cy="127.41" r="2.65"/><circle class="cls-8" cx="252.25" cy="127.41" r="2.65"/><circle class="cls-1" cx="263.1" cy="127.41" r="2.65"/><path class="cls-3" d="M175.91,103.31a0.43,0.43,0,0,1-.36-0.67c0.59-.9,5.4-8.2,6.86-10a9.52,9.52,0,0,1-2.3-2.22c-0.32-.7-1-3.39-0.28-4.52a1.08,1.08,0,0,1,.93-0.52c1.59,0,5.75,2.56,5.79,2.59s0.5,0.34.09,2.19a0.43,0.43,0,0,1-.16.25s-1.77,1.33-2.76,2.14A13.83,13.83,0,0,0,186.16,94a16.89,16.89,0,0,0,2.74-3.18l-0.71-2.74a7.4,7.4,0,0,1-1.06-.57,24.24,24.24,0,0,1-3.79-3.71q-0.39.09-.78,0.14l-2,.28c-3.62.54-7,1.05-8.57-1a2.18,2.18,0,0,1-.46-2.41c0.57-1.12,2.39-1.73,5-1.66h0.33c1.07,0,2.19.05,3.29,0-0.6-1.23-.84-2.31-0.44-3a1.31,1.31,0,0,1,.83-0.61c-1.8-1.5-3.13-3-3.39-4.21-0.45-2-.25-5.48,1.6-6.89,0.74-.57,2.07-1,4.14.08a9.94,9.94,0,0,1,3.74,3.67,5,5,0,0,1,2.69.12,4.8,4.8,0,0,1,1.35.65c1.74-1.32,4.75-2.93,7.61-2.57,2.64,0.32,5.45,3.13,6.28,6.26a5.3,5.3,0,0,1-1.91,6,7.62,7.62,0,0,1-4,1.38c0,0.29,0,.58-0.06.88,2.6-1,6.23-1.13,7.53.23,0.82,0.86.45,2.69-1,4.91a16.45,16.45,0,0,1-4.26,4.43c1.56,1.82,2.83,3.65,2.58,5.35-0.59,4-4.1,4.52-7.81,4.45s-5.83-6.46-6.42-8.38c-0.63.84-1.21,1.53-1.62,2-0.85.92-1.19,1.07-1.5,1a12.18,12.18,0,0,1-3-1.77c-1,1.25-4.51,6.48-6.83,10A0.43,0.43,0,0,1,175.91,103.31ZM189.83,91l0,0.13c0.6,2.28,2.82,8.21,5.76,8.27,3.83,0.09,6.48-.51,6.94-3.71,0.2-1.39-1-3.06-2.47-4.76a6.13,6.13,0,0,1-5.15.8,3.57,3.57,0,0,1-2.18-2.25c-0.52-.11-1.06-0.24-1.62-0.39C190.71,89.77,190.27,90.42,189.83,91Zm-9.06-4.81a0.22,0.22,0,0,0-.21.12c-0.42.65,0,2.88,0.34,3.7A9.61,9.61,0,0,0,183,92c0.83-.69,2.37-1.85,2.82-2.2A5.62,5.62,0,0,0,186,88.6C185.23,88.12,181.87,86.21,180.77,86.21Zm13,3.49a2.6,2.6,0,0,0,1.44,1.23,5.3,5.3,0,0,0,4.28-.65l-0.59-.66c-0.64-.71-1.27-1.41-1.81-2.09-0.45,1.35-1,2.42-1.5,2.42A13.29,13.29,0,0,1,193.8,89.7Zm-4.62-1.21,0.38,1.44,0.74-1.08C189.91,88.75,189.53,88.63,189.18,88.5Zm8.25-2c0.6,0.81,1.38,1.67,2.14,2.52l0.7,0.78a15,15,0,0,0,4.11-4.24c1.32-2,1.49-3.43,1.08-3.85-1-1.05-4.52-1-7,.15-0.17,1.19-.42,2.33-0.61,3.09C197.71,85.49,197.57,86,197.42,86.52Zm-4,2.23a19.28,19.28,0,0,0,2.07.33,9.53,9.53,0,0,0,1-2.4,5.3,5.3,0,0,1-1-2.33c-0.13-1.16.65-2.23,2.2-3,0.05-.43.09-0.85,0.1-1.25h0a15.07,15.07,0,0,1-2.54-.23,18.07,18.07,0,0,0-1.12,2.67,5.93,5.93,0,0,1-.64,2.52,10.27,10.27,0,0,0-.13,3.1A5.73,5.73,0,0,0,193.43,88.75Zm-1.79-.41,0.87,0.21c0-.1,0-0.21,0-0.31a8.62,8.62,0,0,1-.08-1.15C192.15,87.51,191.9,87.93,191.64,88.34Zm-2.5-.78c0.51,0.2,1.07.38,1.64,0.54a28.85,28.85,0,0,0,1.79-3.17,18,18,0,0,1,.63-2.53,2.42,2.42,0,0,0-.66-0.89,2.67,2.67,0,0,1-.81,0l-0.48-.09A21.68,21.68,0,0,1,189.14,87.57Zm-4.88-4a20.91,20.91,0,0,0,3.35,3.25,6.08,6.08,0,0,0,.74.41,19.92,19.92,0,0,0,2.07-6c-0.42-.13-0.86-0.28-1.32-0.46A15.18,15.18,0,0,1,184.26,83.56Zm13.24-1.16a2.14,2.14,0,0,0-1.19,1.86,3.52,3.52,0,0,0,.49,1.32C197.06,84.58,197.31,83.48,197.49,82.4ZM176.19,80c-2,0-3.5.46-3.88,1.2a1.43,1.43,0,0,0,.38,1.5c1.23,1.62,4.4,1.14,7.76.64l2-.29,0.26,0a24.87,24.87,0,0,1-2.12-3c-1.26.06-2.54,0-3.76,0h-0.65Zm5.37-.05a29,29,0,0,0,2.1,2.86,13.7,13.7,0,0,0,4.54-2.48c-0.86-.38-1.76-0.84-2.65-1.35A12,12,0,0,1,181.55,80ZM193.4,81.2l0.17,0.19,0.2-.49A2.19,2.19,0,0,1,193.4,81.2Zm-1.83-1.52a14.47,14.47,0,0,1,1.17.89,1.7,1.7,0,0,0,.87-1.09c-0.65-.17-1.3-0.37-1.93-0.59C191.65,79.16,191.61,79.42,191.57,79.69Zm-1.76.43,0.76,0.25,0.05-.31-0.46-.29Zm-3.41-1.57a27.33,27.33,0,0,0,2.51,1.22l0.49-.45c-0.74-.43-1.54-0.85-2.36-1.23A6.93,6.93,0,0,1,186.4,78.55ZM195.66,79a13.87,13.87,0,0,0,2.09.17c0-.16,0-0.31,0-0.45a1.56,1.56,0,0,0-.48-1.19,0.55,0.55,0,0,0-.45.14A4.77,4.77,0,0,0,195.66,79Zm1.5-2.35a1,1,0,0,1,.48.12c0.65,0.34.92,1.25,1,2.37A6.74,6.74,0,0,0,202.13,78a4.54,4.54,0,0,0,1.59-5.06c-0.73-2.77-3.27-5.35-5.55-5.63-2.47-.3-5.1,1-6.8,2.28a12.08,12.08,0,0,1,3.28,9.28l0.13,0A6.25,6.25,0,0,1,196.29,77,1.5,1.5,0,0,1,197.16,76.69Zm-15.83-.34a1,1,0,0,0-.88.27c-0.28.5,0,1.44,0.62,2.55a12.74,12.74,0,0,0,3.55-.69,35.65,35.65,0,0,1-3.13-2.12h-0.17Zm6.33,1.11a31.21,31.21,0,0,1,3.1,1.7c0-.19.05-0.39,0.08-0.57a24.05,24.05,0,0,1-3-1.42A3.29,3.29,0,0,1,187.66,77.46ZM191.78,78c0.65,0.24,1.33.45,2,.63a11.12,11.12,0,0,0-3.12-8.55,3.79,3.79,0,0,0-1.15,1.29c0,0.67,1.49,2.52,2.13,3.15C191.93,74.81,192,76.19,191.78,78Zm-8.39-1.32c0.69,0.47,1.42.93,2.15,1.36a6.34,6.34,0,0,0,.61-0.37A21.76,21.76,0,0,0,183.39,76.7Zm4.82-.32a23.23,23.23,0,0,0,2.73,1.32,11.18,11.18,0,0,0,.06-2.6c-0.34-.36-2.33-2.54-2.33-3.72a3.11,3.11,0,0,1,1.29-1.8,3.85,3.85,0,0,0-.89-0.39,4.28,4.28,0,0,0-2-.16,12.86,12.86,0,0,1,1.37,4.34A7.12,7.12,0,0,1,188.21,76.38Zm-6.45-.86,0.18,0a18.87,18.87,0,0,1,4.9,1.56,2.39,2.39,0,0,0,.26-0.37,11.83,11.83,0,0,1-1.42-1,5,5,0,0,1-1.09-5.84,3.27,3.27,0,0,1,1.22-1.28,9,9,0,0,0-3.34-3.24c-1.34-.71-2.42-0.76-3.22-0.15-1.38,1.06-1.74,3.95-1.28,6C178.23,72.32,179.74,73.93,181.77,75.51Zm4.49-6.2a2.41,2.41,0,0,0-.9.95,4.11,4.11,0,0,0,.9,4.78,10.55,10.55,0,0,0,1.19.87,6.56,6.56,0,0,0,.13-2.46A12,12,0,0,0,186.25,69.32Z"/><path class="cls-3" d="M62.31,228.35a4,4,0,0,1-3.06-1.74,9.94,9.94,0,0,1-2.06-4.81,5,5,0,0,1-2.44-1.13,4.78,4.78,0,0,1-1-1.11c-2.11.56-5.5,0.9-8-.51-2.32-1.3-3.85-5-3.43-8.18a5.3,5.3,0,0,1,4-4.79,7.63,7.63,0,0,1,4.25.26c0.12-.26.25-0.53,0.39-0.79-2.78-.07-6.19-1.32-6.88-3.07-0.43-1.1.6-2.66,2.77-4.17a16.44,16.44,0,0,1,5.63-2.48c-0.75-2.27-1.23-4.45-.36-5.93,2.09-3.52,5.52-2.63,8.92-1.14s2.94,8.19,2.75,10.19c0.9-.53,1.7-1,2.25-1.22,1.14-.53,1.51-0.54,1.77-0.36a12.19,12.19,0,0,1,2.08,2.76c1.4-.77,6.64-4.28,10.12-6.65a0.43,0.43,0,1,1,.48.71c-0.89.61-8.12,5.53-10.17,6.68a9.51,9.51,0,0,1,1.28,2.92c0,0.77-.36,3.52-1.46,4.28a1.08,1.08,0,0,1-1.06.12c-1.49-.61-4.35-4.56-4.37-4.6s-0.34-.5.74-2.06a0.43,0.43,0,0,1,.24-0.17s2.15-.56,3.36-0.93a13.83,13.83,0,0,0-1.67-2.31,16.93,16.93,0,0,0-3.74,1.9l-0.38,2.81a7.37,7.37,0,0,1,.76.93,24.27,24.27,0,0,1,2.09,4.87q0.39,0.07.77,0.17l1.94,0.49c3.55,0.87,6.9,1.7,7.56,4.15a2.18,2.18,0,0,1-.49,2.4c-1,.82-2.86.69-5.24-0.35l-0.31-.13c-1-.43-2-0.88-3-1.26,0.09,1.36-.1,2.46-0.74,3a1.3,1.3,0,0,1-1,.25c1.1,2.08,1.75,4,1.54,5.18-0.35,2-1.85,5.16-4.1,5.76A2.86,2.86,0,0,1,62.31,228.35ZM58,221.79a9,9,0,0,0,1.86,4.27c1,1.17,2,1.63,2.92,1.37,1.68-.45,3.11-3,3.47-5.08,0.2-1.14-.59-3.21-1.87-5.44l-0.16-.09a18.86,18.86,0,0,1-3.94-3.31,2.47,2.47,0,0,0-.38.24,11.89,11.89,0,0,1,.92,1.5,5,5,0,0,1-1.21,5.81A3.27,3.27,0,0,1,58,221.79Zm1.28-7.41a6.57,6.57,0,0,0-1.05,2.23,12,12,0,0,0-.35,4.33,2.42,2.42,0,0,0,1.19-.54,4.11,4.11,0,0,0,1-4.76A10.57,10.57,0,0,0,59.33,214.37Zm-4.73,4.91a3.86,3.86,0,0,0,.68.71,4.31,4.31,0,0,0,1.8.91,12.84,12.84,0,0,1,.38-4.54,7.11,7.11,0,0,1,1.35-2.71,23.28,23.28,0,0,0-2-2.26,11.19,11.19,0,0,0-1,2.38c0.18,0.46,1.19,3.24.74,4.33A3.11,3.11,0,0,1,54.6,219.28Zm-6.67-12.56a5.65,5.65,0,0,0-1.39.17A4.54,4.54,0,0,0,43.14,211c-0.38,2.84,1,6.19,3,7.32,2.17,1.22,5.11,1,7.16.48a12.08,12.08,0,0,1,.5-9.83l-0.11-.07A6.24,6.24,0,0,1,51.57,210a1.23,1.23,0,0,1-1.31-.33c-0.47-.56-0.37-1.5,0-2.56A7.66,7.66,0,0,0,47.93,206.73Zm6.57,2.71a11.12,11.12,0,0,0-.37,9.09,3.79,3.79,0,0,0,1.55-.75c0.25-.62-0.43-2.9-0.77-3.73-0.15-.35.34-1.64,1.21-3.26C55.61,210.31,55.07,209.86,54.5,209.43ZM65,216.23a1.19,1.19,0,0,0,1.07.15c0.45-.36.54-1.33,0.4-2.59a12.74,12.74,0,0,0-3.55-.71A35.68,35.68,0,0,1,65,216.23Zm2.24-3.08c1.19,0.42,2.36.94,3.48,1.43l0.3,0.13c2,0.86,3.67,1.06,4.33.49a1.43,1.43,0,0,0,.22-1.53c-0.52-2-3.64-2.73-6.93-3.54-0.66-.16-1.32-0.32-2-0.5l-0.26-.06A24.86,24.86,0,0,1,67.25,213.15Zm-6,.08a21.87,21.87,0,0,0,2.17,2c-0.46-.7-1-1.4-1.47-2.08A6.41,6.41,0,0,0,61.21,213.23Zm-4-2.61a24.06,24.06,0,0,1,2.22,2.45l0.3-.2a31.19,31.19,0,0,1-2.23-2.75Zm5.47,1.6a12.52,12.52,0,0,1,3.66.63,29,29,0,0,0-.86-3.44,13.65,13.65,0,0,0-5.15.57c0.65,0.68,1.3,1.44,1.94,2.26h0.4Zm-3.86-1.73c0.52,0.68,1.11,1.37,1.72,2a6.9,6.9,0,0,1,.76-0.18,27.25,27.25,0,0,0-1.86-2.08ZM55,208.73c0.54,0.41,1.06.84,1.56,1.28l0.4-.68a14.47,14.47,0,0,1-.75-1.27A1.7,1.7,0,0,0,55,208.73Zm3,0.6,0.31,0.44,0.46-.18-0.61-.52Zm0.63-1c0.34,0.28.69,0.59,1,.93a15.13,15.13,0,0,1,5.55-.76,21,21,0,0,0-1.86-4.28,6,6,0,0,0-.53-0.66A19.93,19.93,0,0,0,58.6,208.35Zm-7.55-.94c-0.05.15-.1,0.29-0.14,0.43a1.57,1.57,0,0,0,0,1.28,0.55,0.55,0,0,0,.47,0,4.77,4.77,0,0,0,1.55-.8A13.79,13.79,0,0,0,51.06,207.41Zm5.7-.16a2.71,2.71,0,0,1,.75.32l0.41,0.26A21.68,21.68,0,0,1,62.2,203c-0.4-.38-0.85-0.76-1.31-1.13A28.84,28.84,0,0,0,58,204.08a18,18,0,0,1-1.54,2.1A2.42,2.42,0,0,0,56.75,207.25Zm-5.37-.63a15,15,0,0,1,2.27,1.18,18.12,18.12,0,0,0,2.05-2,5.93,5.93,0,0,1,1.55-2.09,10.26,10.26,0,0,0,1.3-2.82,5.69,5.69,0,0,0,.13-0.63,19.39,19.39,0,0,0-1.79-1.09A9.51,9.51,0,0,0,55.08,201a5.3,5.3,0,0,1,.07,2.55c-0.33,1.12-1.45,1.82-3.19,2C51.74,205.88,51.55,206.26,51.38,206.62ZM65.5,203.2c0.53,0.74,2.89,3.77,3.92,4.19a0.22,0.22,0,0,0,.24,0c0.64-.45,1.12-2.65,1.09-3.55a9.61,9.61,0,0,0-1.22-2.62c-1,.32-2.89.81-3.45,1A5.62,5.62,0,0,0,65.5,203.2ZM55.76,207l-0.37.38a2.18,2.18,0,0,1,.45-0.14Zm-3-10.35A15,15,0,0,0,47.35,199c-2,1.39-2.68,2.6-2.46,3.15,0.53,1.35,3.8,2.61,6.56,2.53,0.61-1,1.27-2,1.73-2.63,0.31-.42.63-0.85,1-1.27-0.25-1-.64-2.07-1-3.15Zm1.59,5.25c-0.63.82-1.28,1.75-1.85,2.67a2.14,2.14,0,0,0,1.81-1.26A3.52,3.52,0,0,0,54.36,201.88Zm5.09-1.12q0,0.15-.07.31a8.77,8.77,0,0,1-.36,1.09c0.37-.29.77-0.58,1.16-0.87Zm2.17,0.56c0.31,0.25.61,0.51,0.89,0.76l0.2-1.48Zm-2.05-1.53c0.44,0.3.89,0.63,1.35,1,0.65-.45,1.31-0.88,1.94-1.27l0-.13c0.31-2.34.51-8.66-2.18-9.84-3.51-1.53-6.18-2-7.83.79-0.72,1.21-.24,3.21.47,5.34a6.14,6.14,0,0,1,5.07,1.22A3.57,3.57,0,0,1,59.58,199.8Zm-5.95-3.29,0.3,0.84c0.32,0.9.64,1.79,0.88,2.62,0.93-1.08,1.82-1.86,2.3-1.67a13.27,13.27,0,0,1,1.59.92,2.6,2.6,0,0,0-.86-1.69A5.28,5.28,0,0,0,53.63,196.5Z"/><path class="cls-8" d="M259.4,113.21a0.43,0.43,0,0,1-.43-0.41c-0.16-4.26-1.92-6.88-3.89-8.27a4.6,4.6,0,0,1-1.91,2.7,3.91,3.91,0,0,1-4.1.17A2.37,2.37,0,0,1,248,105c0.24-1.66,1.72-2.66,3.78-2.55a7,7,0,0,1,2.69.74,8.72,8.72,0,0,0-.09-2c-0.48-3.15-2.29-5.21-5-5.66a6.41,6.41,0,0,0-2.51.09,8.74,8.74,0,0,1,.33,1.63c0.34,3.13-1,4.12-1.62,4.4a2.22,2.22,0,0,1-2.55-.49,3.08,3.08,0,0,1-.16-3.67,5.39,5.39,0,0,1,2.87-2.41c-1.67-3.82-6-5-6.06-5.05a0.43,0.43,0,0,1,.22-0.83c0.06,0,4.85,1.35,6.66,5.62a7.21,7.21,0,0,1,2.95-.13c3.08,0.52,5.15,2.84,5.68,6.38a9.21,9.21,0,0,1,.06,2.56c2.29,1.46,4.39,4.35,4.57,9.14a0.43,0.43,0,0,1-.41.44h0Zm-7.93-9.93c-1.2,0-2.45.47-2.65,1.82a1.51,1.51,0,0,0,.72,1.57,3,3,0,0,0,3.17-.16,3.83,3.83,0,0,0,1.61-2.45,6.29,6.29,0,0,0-2.6-.77h-0.24ZM246,95.87a4.51,4.51,0,0,0-2.41,2,2.28,2.28,0,0,0,0,2.68,1.37,1.37,0,0,0,1.56.31c0.9-.42,1.32-1.74,1.13-3.53A7.84,7.84,0,0,0,246,95.87Z"/><path class="cls-7" d="M377.09,112.23a0.43,0.43,0,0,1-.14-0.84c4-1.37,6-3.8,6.81-6.09a4.61,4.61,0,0,1-3.13-1.06,3.91,3.91,0,0,1-1.33-3.88,2.37,2.37,0,0,1,2-1.75c1.65-.25,3,0.89,3.52,2.9a7.08,7.08,0,0,1,.06,2.79,8.78,8.78,0,0,0,1.86-.65c2.88-1.36,4.34-3.68,4-6.39a6.39,6.39,0,0,0-.8-2.38,8.72,8.72,0,0,1-1.46.78c-2.91,1.22-4.24.2-4.68-.3a2.22,2.22,0,0,1-.25-2.58A3.08,3.08,0,0,1,387,91.6a5.39,5.39,0,0,1,3.13,2.07c3.2-2.69,3.12-7.19,3.12-7.25A0.43,0.43,0,0,1,393.7,86a0.45,0.45,0,0,1,.44.42c0,0.06.09,5-3.49,8a7.21,7.21,0,0,1,1,2.79c0.38,3.1-1.25,5.75-4.49,7.27a9.2,9.2,0,0,1-2.43.79c-0.75,2.62-2.92,5.45-7.46,7Zm4.67-12.78-0.32,0a1.51,1.51,0,0,0-1.3,1.14,3,3,0,0,0,1.06,3,3.83,3.83,0,0,0,2.81.84,6.29,6.29,0,0,0,0-2.72A2.57,2.57,0,0,0,381.76,99.45Zm4.35-7.09a2,2,0,0,0-1.79.86,1.37,1.37,0,0,0,.15,1.58c0.66,0.74,2,.77,3.7.08a7.89,7.89,0,0,0,1.32-.7,4.51,4.51,0,0,0-2.61-1.74A4,4,0,0,0,386.11,92.36Z"/><path class="cls-8" d="M385.4,262.75h-0.07c-0.06,0-5-.86-7.18-4.93a7.12,7.12,0,0,1-2.92.42c-3.11-.21-5.41-2.31-6.29-5.78a9.22,9.22,0,0,1-.32-2.54c-2.43-1.23-4.8-3.89-5.46-8.64a0.43,0.43,0,0,1,.37-0.48,0.44,0.44,0,0,1,.48.37c0.58,4.22,2.59,6.65,4.7,7.84a4.6,4.6,0,0,1,1.63-2.87,3.91,3.91,0,0,1,4.06-.57,2.37,2.37,0,0,1,1.34,2.3c-0.07,1.67-1.45,2.81-3.51,2.91a7,7,0,0,1-2.75-.46,8.76,8.76,0,0,0,.29,2c0.79,3.09,2.8,5,5.52,5.14a6.44,6.44,0,0,0,2.49-.33,8.7,8.7,0,0,1-.49-1.58c-0.65-3.08.6-4.2,1.17-4.54a2.23,2.23,0,0,1,2.58.24,3.08,3.08,0,0,1,.52,3.63,5.39,5.39,0,0,1-2.62,2.68c2,3.65,6.48,4.41,6.53,4.42A0.43,0.43,0,0,1,385.4,262.75Zm-5.83-11.28a1.34,1.34,0,0,0-.68.19c-0.86.51-1.14,1.86-.77,3.62a7.94,7.94,0,0,0,.44,1.43,4.52,4.52,0,0,0,2.2-2.24,2.28,2.28,0,0,0-.28-2.66A1.39,1.39,0,0,0,379.58,251.48Zm-10.05-2.08a6.19,6.19,0,0,0,2.67.51c1.26-.06,2.63-0.64,2.69-2.09a1.51,1.51,0,0,0-.87-1.49,3,3,0,0,0-3.14.48A3.83,3.83,0,0,0,369.52,249.39Z"/><polygon class="cls-8" points="206.01 238.27 206.53 229.4 225.13 231.83 206.01 238.27"/><polygon class="cls-3" points="212.13 251.56 226.98 242.9 218.08 258.06 212.13 251.56"/><path class="cls-8" d="M233.7,259c-0.15-.38,1.93-14.42,1.93-14.42l4.43,13.63Z"/><polygon class="cls-3" points="285.32 108.48 274.13 96.76 282.85 89.73 285.32 108.48"/><path class="cls-3" d="M294.7,108.74c0.13-.52,8.07-15.1,8.07-15.1l8.85,4.43Z"/><polygon class="cls-3" points="290.92 90.64 288.84 77.45 295.96 78.14 290.92 90.64"/><path class="cls-2" d="M89.19,289.6s9.33,9.54,46.7-1.22c36.8-10.59,41.49-32.64,41.49-32.64s-21-5.56-51.73,4.34S89.19,289.6,89.19,289.6Z"/><polygon class="cls-5" points="184.76 405.82 182.36 412.82 178.6 423.79 169.83 422.75 171.22 413.66 172.52 405.13 184.76 405.82"/><path class="cls-2" d="M184.76,405.82l-2.4,7a28.87,28.87,0,0,1-11.15.84l1.3-8.53Z"/><path class="cls-2" d="M208.46,445.66s-7.45-.05-16.58-0.19c-10.34-.15-22.88-0.4-29.25-0.76,0,0,.12-2.28.51-5.57,0.69-5.86,2.2-15,5.31-20.12a28.45,28.45,0,0,0,13.45,1.39s5.3,7.73,9.81,9.73a14.55,14.55,0,0,0,2.15.74c3.8,1,7.62.52,11.57,2.21,2.53,1.08,3.21,4.66,3.29,7.72A28.39,28.39,0,0,1,208.46,445.66Z"/><ellipse class="cls-3" cx="173.17" cy="431.04" rx="3.69" ry="4.64"/><path class="cls-3" d="M208.46,445.66s-7.45-.05-16.58-0.19c0-1,0-2.87.17-5.06,0.22-3.22.71-7.07,1.81-9.54,3.8,1,7.62.52,11.57,2.21,2.53,1.08,3.21,4.66,3.29,7.72A28.39,28.39,0,0,1,208.46,445.66Z"/><path class="cls-3" d="M208.46,445.66s-7.45-.05-16.58-0.19c-10.34-.15-22.88-0.4-29.25-0.76,0,0,.12-2.28.51-5.57,3.83,0.21,15.76.84,28.91,1.27,5.51,0.18,11.24.32,16.68,0.39A28.39,28.39,0,0,1,208.46,445.66Z"/><path class="cls-8" d="M207,441.2h0c-4.44-.06-9.33-0.18-15-0.36-10.45-.34-20.31-0.82-26.74-1.15a0.43,0.43,0,0,1-.41-0.45,0.45,0.45,0,0,1,.45-0.41c6.42,0.34,16.28.81,26.72,1.15,5.61,0.18,10.5.3,14.94,0.36A0.43,0.43,0,0,1,207,441.2Z"/><path class="cls-7" d="M169.83,386.73s8.72-1.3,16,.65a27.61,27.61,0,0,1,12,7l-7.16,16.15s-15.75,3.39-22.66-6.77Z"/><path class="cls-1" d="M174.52,408.12h-0.08a0.43,0.43,0,0,1-.35-0.5L176.7,393a0.43,0.43,0,1,1,.84.15l-2.6,14.58A0.43,0.43,0,0,1,174.52,408.12Z"/><path class="cls-1" d="M220.79,331.78c0,6.95-28,62.24-28,62.24s-12.36,1-19.27-5.86c0,0,3.26-21.48,5.21-32.15a53.12,53.12,0,0,1,6.25-17.45,10.17,10.17,0,0,1-.78-2.73,3.74,3.74,0,0,1,.92-2.48s-11.75-9.9-23.78-20.41c-6.52-5.71-13.11-11.59-18-16.19-2.07-2-3.83-3.7-5.12-5.07-9.9-10.54-15.5-27.21-14.85-40s19.93-32.68,40.5-8.46C163.84,243.24,220.79,313.72,220.79,331.78Z"/><path class="cls-2" d="M161.29,312.94c-6.52-5.71-13.11-11.59-18-16.19a2.84,2.84,0,0,1,.39-0.56c5.21-6.25,10.42-14.23,10.42-14.23S158.95,303.19,161.29,312.94Z"/><path class="cls-7" d="M180.51,389.67h-0.09a0.43,0.43,0,0,1-.33-0.51c0-.2,4.2-20.27,7-30.06a147.71,147.71,0,0,1,8.24-21,5.1,5.1,0,0,1-.86-4.64l-41.13-42a0.43,0.43,0,0,1,.61-0.6L195.22,333a0.43,0.43,0,0,1,.09.47,4.24,4.24,0,0,0,.8,4.24,0.43,0.43,0,0,1,.06.47,148.26,148.26,0,0,0-8.31,21.11c-2.74,9.77-6.9,29.8-6.94,30A0.43,0.43,0,0,1,180.51,389.67Z"/><path class="cls-2" d="M135.87,448.52c0,0.89-.05,1.73-0.09,2.43-0.07,1-.15,1.71-0.15,1.71-6.25,3.71-16.08,3.65-21.09,1.17s-13.22-13.6-13.22-13.6a47.3,47.3,0,0,1,1.25-4.86c1.7-5.42,4.23-10.61,6.07-12,5.47-2.54,12,2.47,12.62,3.58a43.06,43.06,0,0,0,4.24,8.33,9.94,9.94,0,0,0,2.27,2.39c3.09,2.34,7,3,7.75,4.91C136,443.69,135.91,446.75,135.87,448.52Z"/><ellipse class="cls-3" cx="108.2" cy="431.82" rx="4.53" ry="2.69" transform="translate(-336.61 414.04) rotate(-73.64)"/><path class="cls-3" d="M135.87,448.52c0,0.89-.05,1.73-0.09,2.43-2.3.33-9.24,1.26-13.1,1a19.33,19.33,0,0,1-8.06-2.41,11.52,11.52,0,0,1,.14-1.52c0.29-2.05,1.41-6.84,4.57-8.68,2.55-1.49,6-1.72,8.46-1.65,3.09,2.34,7,3,7.75,4.91C136,443.69,135.91,446.75,135.87,448.52Z"/><path class="cls-3" d="M135.87,448.52c0,0.89-.05,1.73-0.09,2.43-0.07,1-.15,1.71-0.15,1.71-6.25,3.71-16.08,3.65-21.09,1.17s-13.22-13.6-13.22-13.6a47.3,47.3,0,0,1,1.25-4.86c1.4,1.91,6.9,9.2,12.18,12.66a14,14,0,0,0,2.47,1.32C122.6,451.48,132.29,449.41,135.87,448.52Z"/><path class="cls-8" d="M123.36,450.7a17.5,17.5,0,0,1-6.3-1,14.31,14.31,0,0,1-2.55-1.36c-4.33-2.84-8.81-8.22-11.1-11.18a0.43,0.43,0,0,1,.68-0.53c2.25,2.92,6.66,8.22,10.89,11a13.44,13.44,0,0,0,2.39,1.28c4.47,1.78,12.15.54,16.33-.36a0.43,0.43,0,0,1,.18.84A53,53,0,0,1,123.36,450.7Z"/><path class="cls-5" d="M124,411.47L121.92,417l-3.78,10.07a9.68,9.68,0,0,1-8.58-2.21l1.69-7.56,1.82-8.2Z"/><path class="cls-2" d="M113.06,409.12L124,411.47,121.92,417a19.41,19.41,0,0,1-10.68.3Z"/><path class="cls-7" d="M111.5,389.07l-3.91,19s4.82,5.34,11.33,6.64a33.4,33.4,0,0,0,12.37,0l7.55-15.36S133.77,385.55,111.5,389.07Z"/><path class="cls-1" d="M113.72,411.63h-0.09a0.43,0.43,0,0,1-.33-0.51l2.6-12.76a0.43,0.43,0,1,1,.84.17l-2.6,12.76A0.43,0.43,0,0,1,113.72,411.63Z"/><path class="cls-7" d="M147.57,291.72a0.43,0.43,0,0,1-.33-0.7c3.29-4.05,8.19-10.73,8.19-12.53,0-2-5.33-20-8.14-29.21a0.43,0.43,0,0,1,.82-0.25c0.33,1.09,8.18,26.83,8.18,29.46s-7.53,12-8.39,13.07A0.43,0.43,0,0,1,147.57,291.72Z"/><path class="cls-1" d="M155,354.44c-1.82,6.77-21.35,47-21.35,47s-12.5.7-20.13-8c0,0,6.77-28.48,8.16-34.55a33.19,33.19,0,0,1,3.3-9.2s-2.6-1.22-2.26-5.39c0,0-13.86-25.22-22.53-51.27a149.74,149.74,0,0,1-5.77-22.34,36.31,36.31,0,0,1-.51-6c-0.05-27.66,32.49-41.21,42.87-23.27,0,0,16.67,53.64,17.19,56.77S156.81,347.67,155,354.44Z"/><path class="cls-2" d="M123.92,261.13c-15.13,10.42-21.72,26-23.75,31.88a149.74,149.74,0,0,1-5.77-22.34,36.31,36.31,0,0,1-.51-6C109.18,256.2,138.34,251.2,123.92,261.13Z"/><path class="cls-7" d="M119.4,395.06h-0.07a0.43,0.43,0,0,1-.36-0.49c2.78-17.35,11.52-40.68,12.44-43.11a5.32,5.32,0,0,1-.54-5.43c-15.6-27.39-31.87-79.21-32-79.73a0.43,0.43,0,1,1,.82-0.26c0.16,0.52,16.49,52.53,32.08,79.77a0.43,0.43,0,0,1,0,.46c-0.06.08-1.36,2.07,0.52,4.9a0.43,0.43,0,0,1,0,.39c-0.1.25-9.57,25-12.48,43.14A0.43,0.43,0,0,1,119.4,395.06Z"/><path class="cls-7" d="M111.07,294a0.43,0.43,0,0,1-.29-0.74s4.75-4.46,5.25-8.42-4.28-21.53-4.33-21.71a0.43,0.43,0,1,1,.83-0.23c0.2,0.73,4.88,17.84,4.35,22s-5.31,8.75-5.52,8.94A0.43,0.43,0,0,1,111.07,294Z"/><path class="cls-5" d="M207.72,205.1a69.07,69.07,0,0,1-8.92-1.64c-7.62-1.73-16.6-4.23-16.6-4.23l5.17-12.78,3-7.53,9.11,4.69-4.08-37.76a12.15,12.15,0,0,1-5.71-6.1c-0.45-1.22,1.09-1.5,2.64-.58s6.16,1.82,6.16,1.82a35,35,0,0,0,3.52-3.12c0.52-.74-1.4-6.37-1.56-8.28s2.46-2,4.42,1.67c-0.08-.25-0.74-2.27-1.21-4.32-0.55-2.43,3.22-2.62,4.6,3.26l0.64,2.12c0-.36-0.42-3.08-0.73-4.86-0.41-2.41,2.34-2.53,3.44,1.86a34.65,34.65,0,0,1,1.44,6.74,3.88,3.88,0,0,1-.89,2.86c-2.89,3.43-6.87,7.33-6.87,7.33s12.05,40.35,12.44,47.12S213.58,205.48,207.72,205.1Z"/><path class="cls-2" d="M198.8,203.46c-7.62-1.73-16.6-4.23-16.6-4.23l5.17-12.78Z"/><path class="cls-2" d="M203.36,137.49a0.3,0.3,0,0,1-.2-0.53l1.12-1a1.54,1.54,0,0,0,.52-1.16c0-.65,0-1.66-0.14-2.77a0.3,0.3,0,0,1,.6-0.06c0.11,1.13.14,2.16,0.14,2.83a2.14,2.14,0,0,1-.72,1.61l-1.12,1A0.3,0.3,0,0,1,203.36,137.49Z"/><path class="cls-2" d="M207.2,194.46a0.3,0.3,0,0,1-.28-0.19c-1.65-4.06-7-9.48-7-9.54a0.3,0.3,0,1,1,.43-0.42c0.22,0.23,5.47,5.56,7.16,9.73a0.3,0.3,0,0,1-.17.39Z"/><path class="cls-5" d="M208,136.48s0.1-4,0-5.08,2.21-1.92,2.86,1.73a26.58,26.58,0,0,1,.42,4.75Z"/><path class="cls-2" d="M211.27,138.18h0a0.3,0.3,0,0,1-.29-0.31,26.52,26.52,0,0,0-.42-4.69c-0.34-1.9-1.13-2.48-1.71-2.41a0.61,0.61,0,0,0-.56.6c0.1,1.11,0,4.95,0,5.11a0.32,0.32,0,0,1-.31.29,0.3,0.3,0,0,1-.29-0.31s0.1-4,0-5a1.2,1.2,0,0,1,1.08-1.25c0.87-.12,2,0.58,2.38,2.9a26.58,26.58,0,0,1,.43,4.81A0.3,0.3,0,0,1,211.27,138.18Z"/><path class="cls-3" d="M187,207.31s-2.92-.7-6.9-1.6c-5.42-1.22-12.8-2.8-17.45-3.48-8.08-1.17-17.44-13.67-13.29-27.85,0.1-.35.21-0.71,0.32-1,4.95-14.8,17.6-11,17.6-11l25.18,15.41S197,195.59,187,207.31Z"/><path class="cls-2" d="M180.12,205.7c-5.42-1.22-12.8-2.8-17.45-3.48-8.08-1.17-17.44-13.67-13.29-27.85,0.1-.35.21-0.71,0.32-1,4.3,1.58,8.67,3.07,8.67,3.07Z"/><path class="cls-5" d="M183.11,204.35a0.43,0.43,0,0,1-.33-0.7c8.1-9.87,4.38-26.55,4.34-26.71a0.43,0.43,0,0,1,.84-0.19c0,0.17,3.86,17.25-4.51,27.45A0.43,0.43,0,0,1,183.11,204.35Z"/><path class="cls-3" d="M177.38,255.74s-9.9-.52-42,7.29S89.19,289.6,89.19,289.6a227.19,227.19,0,0,1-3.47-33.51s-2.6-5.9-2.43-7.81a44.52,44.52,0,0,1,1.91-6.77s0.52-2.95,4.86-22c1.17-5.15,3.29-12.52,5.76-20.54,2.8-9.06,6.05-19,8.9-27.43,4-11.78,7.1-20.76,7.1-20.76l25.58-.52c11.25,1.93,29.91,12.12,29.91,12.12s3.48,6.08,2.6,23.27-3.29,43.05-3.29,43.05,4.85,6.43,5,8.16-1.91,5.73-1.39,8.17S177.38,255.74,177.38,255.74Z"/><path class="cls-2" d="M113.15,169.57L95.82,198.92c2.8-9.06,6.05-19,8.9-27.43Z"/><path class="cls-5" d="M169,200.85h0a0.43,0.43,0,0,1-.4-0.46c0.42-5.7.73-10.68,0.94-14.8,0.53-10.51-.55-16.86-1.55-20.33a0.43,0.43,0,0,1,.83-0.24c1,3.54,2.12,10,1.58,20.61-0.21,4.13-.53,9.12-0.94,14.82A0.43,0.43,0,0,1,169,200.85Z"/><path class="cls-5" d="M109.68,251.75a0.43,0.43,0,0,1-.14-0.84,143.82,143.82,0,0,1,53.82-7.57,0.43,0.43,0,0,1,.39.47,0.42,0.42,0,0,1-.47.39,143,143,0,0,0-53.46,7.53Z"/><path class="cls-5" d="M111.37,238.2a0.43,0.43,0,0,1-.14-0.83c0.39-.14,39.21-13.87,48.16-21.92a0.43,0.43,0,0,1,.57.64c-6.37,5.73-26.89,14-39.1,18.66,19-4.36,40.25-5.07,40.5-5.08a0.43,0.43,0,0,1,0,.86c-0.29,0-29.34,1-49.88,7.66Z"/><path class="cls-3" d="M128.75,147.15l-2.28,11.46s5.66,4.95,12.63,4.88,10.16-2.15,10.16-2.15l1-10.55A24,24,0,0,0,128.75,147.15Z"/><path class="cls-5" d="M139,163.92c-7,0-12.54-4.78-12.77-5a0.43,0.43,0,0,1-.14-0.41l1.39-7a0.43,0.43,0,0,1,.84.17l-1.34,6.72c1,0.83,6.14,4.68,12.16,4.62,5.85-.06,9-1.57,9.75-2l0.55-6a0.42,0.42,0,0,1,.47-0.39,0.43,0.43,0,0,1,.39.47l-0.57,6.21a0.43,0.43,0,0,1-.19.32c-0.13.09-3.38,2.15-10.39,2.22H139Z"/><path class="cls-5" d="M143.79,140.21l-0.69,6.73-0.48,4.71a25.28,25.28,0,0,1-7.54-1.22l2.18-10.32,0.46-2.15Z"/><path class="cls-2" d="M143.79,140.21l-0.69,6.73a12.26,12.26,0,0,1-5.84-6.83l0.46-2.15Z"/><path class="cls-5" d="M143.19,152.08h-0.57a25.7,25.7,0,0,1-7.67-1.24,16.86,16.86,0,0,1-4-1.82,0.43,0.43,0,0,1,.48-0.71,16.41,16.41,0,0,0,3.82,1.72,24.85,24.85,0,0,0,7.42,1.2,28.81,28.81,0,0,0,5.34-.4,0.43,0.43,0,1,1,.14.85A30,30,0,0,1,143.19,152.08Z"/><path class="cls-2" d="M139.1,138.56s-5.9,4.6-10-4.95c0,0-8.51-1-8.77-5.29s4.08-4.69,4.08-4.69a19,19,0,0,1,6.51-19.1c9.72-8.25,10.59,1.13,10.59,1.13s5.38-9.11,12.76-8.68,0.61,11.11.61,11.11,8.59-4.25,11.37-.78-2.6,12.67-7.38,15.19c0,0,4.86-.17,4.69,4.08s-8,8.85-13.28,9.2C150.3,135.78,145.27,145.33,139.1,138.56Z"/><path class="cls-5" d="M151.53,131c0.25-1.79,1.2-3.32,2.5-3.75a2.18,2.18,0,0,1,2.27.53c2.25,2-.53,10.35-5.28,6.9Z"/><path class="cls-2" d="M152,133.26h-0.08a0.3,0.3,0,0,1-.21-0.37c0.5-1.74,1.26-2.8,2.27-3.16a2.64,2.64,0,0,1,2.24.33,0.3,0.3,0,0,1-.35.49,2.06,2.06,0,0,0-1.7-.25c-0.81.29-1.45,1.22-1.89,2.75A0.3,0.3,0,0,1,152,133.26Z"/><path class="cls-2" d="M154.29,133.26h0A0.3,0.3,0,0,1,154,133a8.4,8.4,0,0,0-.45-2.71,0.3,0.3,0,0,1,.56-0.22,8.86,8.86,0,0,1,.49,2.94A0.3,0.3,0,0,1,154.29,133.26Z"/><path class="cls-5" d="M133.33,118.25c-1.59,8.85-.13,15.1,2.08,18.4s7.38,7.2,11.85,5.82,5.52-8.42,6.51-18.79C155.08,110,135.29,107.4,133.33,118.25Z"/><path class="cls-2" d="M133.7,131.55a35.07,35.07,0,0,1,1.89-7.36s8.72,0.91,11-6.51c0,0,0,6.08,5.38,6.68a16.36,16.36,0,0,1,.9,6.92s3.2-7.9,1.25-14.74-15.3-9.5-20.44-3.06S130.84,129.75,133.7,131.55Z"/><path class="cls-5" d="M134.38,131a4.69,4.69,0,0,0-3.4-3.75,3.77,3.77,0,0,0-3.08.53c-3.06,2,.72,10.35,7.16,6.9Z"/><path class="cls-2" d="M133.7,133.26a0.3,0.3,0,0,1-.28-0.19,4.3,4.3,0,0,0-2.32-2.68,3.76,3.76,0,0,0-2.77.16,0.3,0.3,0,0,1-.28-0.53,4.31,4.31,0,0,1,3.25-.2,4.86,4.86,0,0,1,2.67,3,0.3,0.3,0,0,1-.17.39Z"/><path class="cls-2" d="M130.64,133.26a0.3,0.3,0,0,1-.3-0.29,6.82,6.82,0,0,1,.67-3,0.3,0.3,0,1,1,.53.28,6.31,6.31,0,0,0-.6,2.67,0.3,0.3,0,0,1-.29.31h0Z"/><path class="cls-2" d="M146.28,136.29a0.3,0.3,0,0,1-.09-0.59,2.64,2.64,0,0,0,1.94-1.63,8.45,8.45,0,0,1-1.67-5.07,0.29,0.29,0,0,1,.31-0.29,0.3,0.3,0,0,1,.29.31,7.9,7.9,0,0,0,1.62,4.77,0.3,0.3,0,0,1,.07.24,3.06,3.06,0,0,1-2.39,2.24h-0.09Z"/><ellipse class="cls-2" cx="142.62" cy="130.03" rx="1.19" ry="1.58"/><circle class="cls-8" cx="142.92" cy="129.52" r="0.43"/><path class="cls-2" d="M146.91,139.56a5.85,5.85,0,0,1-1.07.16,6.79,6.79,0,0,1-4.44-1.09,7.9,7.9,0,0,1,.79-0.6,8.63,8.63,0,0,1,.78-0.46h0c1.14-.58,2.6-0.91,3.44.56A4.62,4.62,0,0,1,146.91,139.56Z"/><path class="cls-8" d="M146.42,138.13a5.79,5.79,0,0,1-3.44-.56C144.12,137,145.59,136.66,146.42,138.13Z"/><path class="cls-3" d="M145.84,139.72a6.79,6.79,0,0,1-4.44-1.09,7.9,7.9,0,0,1,.79-0.6C143.4,137.88,145.25,138,145.84,139.72Z"/><ellipse class="cls-2" cx="149.65" cy="130.03" rx="1.19" ry="1.58"/><circle class="cls-8" cx="149.99" cy="129.52" r="0.43"/><path class="cls-2" d="M144.42,123.8a6.29,6.29,0,0,1-.27,1.72c-0.23.49-2.42,0.95-3.68,2.08a2.87,2.87,0,0,1,.61-2.08c0.78-1,2.61-.85,2.61-0.85S144.42,122.83,144.42,123.8Z"/><path class="cls-2" d="M148.63,123.8a7.54,7.54,0,0,0,.22,1.72c0.19,0.49,2,.95,3,2.08a3.35,3.35,0,0,0-.5-2.08,2.61,2.61,0,0,0-2.15-.85S148.63,122.83,148.63,123.8Z"/><path class="cls-3" d="M114,166.68c-2.33,10.94-12.5,17.31-12.5,17.31s-12-2.6-21-9.9c0,0-1.49-6.44,2.73-15.62a22.32,22.32,0,0,1,16.42-12.88l12.17,5.15S116.32,155.75,114,166.68Z"/><path class="cls-5" d="M103.35,183.06a0.43,0.43,0,0,1-.27-0.77c3.2-2.54,8.82-8,10.47-15.7,1.42-6.59.34-11-.82-13.52a0.43,0.43,0,1,1,.78-0.36c1.21,2.65,2.34,7.23.88,14.05-1.71,8-7.48,13.58-10.78,16.19A0.43,0.43,0,0,1,103.35,183.06Z"/><path class="cls-2" d="M99.66,145.59a48.39,48.39,0,0,1-2.92,10.7c-0.24.59-.49,1.2-0.76,1.8l-0.06.15a32.08,32.08,0,0,1-10,12.95,23.21,23.21,0,0,1-5.39,2.92,20.29,20.29,0,0,1,.1-7.21,33,33,0,0,1,2.62-8.42A22.32,22.32,0,0,1,99.66,145.59Z"/><path class="cls-5" d="M85.85,176.23a0.43,0.43,0,0,1-.17-0.82c13.94-6.21,16.52-26.28,16.54-26.48a0.43,0.43,0,0,1,.85.1c0,0.21-2.67,20.76-17,27.16A0.43,0.43,0,0,1,85.85,176.23Z"/><path class="cls-5" d="M139.58,113.08s3,0.08,2.86,1.48-6.51,1.73-6.73,1.86-2.93,5.47-4.75,5.79a22.57,22.57,0,0,1-4.23.2s-23.75,28.05-30,33.87l0,0c-0.06.16-.23,0.67-0.74,1.77l-0.06.15a32.08,32.08,0,0,1-10,12.95c-1.05-.77-2.71-2-4.51-3.59l-0.77-.7c-4.2-3.81-8.7-9.11-7.48-13.49C75.3,145.59,123,116,123,116s3.56-10.26,4.86-11.4,1.69,0.31,1.65,1.3a25.91,25.91,0,0,1-.43,2.81c0.23-.24,3.95-4,5.72-4.32a13.41,13.41,0,0,1,6.39.78c1.17,0.6-.86,1.77-0.86,1.77s3-.08,2.91,1.22-3.6,1.91-3.6,1.91,3.55-.25,3.69,1.18S139.58,113.08,139.58,113.08Z"/><path class="cls-2" d="M96.72,156.32c-0.06.16-.23,0.67-0.74,1.77l-0.06.15a32.08,32.08,0,0,1-10,12.95c-1.05-.77-2.71-2-4.51-3.59C90.1,165.38,96.32,156.86,96.72,156.32Z"/><path class="cls-2" d="M131.92,109.24a0.3,0.3,0,0,1-.2-0.53,9.78,9.78,0,0,1,3.11-1.82,26.67,26.67,0,0,1,4.6-.23,0.3,0.3,0,0,1,.29.31,0.29,0.29,0,0,1-.31.29,27,27,0,0,0-4.45.21,9.38,9.38,0,0,0-2.86,1.69A0.3,0.3,0,0,1,131.92,109.24Z"/><path class="cls-2" d="M132.66,112a0.3,0.3,0,0,1-.19-0.53,9.53,9.53,0,0,1,2.47-1.49,15.57,15.57,0,0,1,4-.28,0.3,0.3,0,0,1,.29.31,0.31,0.31,0,0,1-.31.29,15.45,15.45,0,0,0-3.8.24,9.1,9.1,0,0,0-2.28,1.38A0.3,0.3,0,0,1,132.66,112Z"/><path class="cls-2" d="M133.44,114.47a0.3,0.3,0,0,1-.19-0.54,5.86,5.86,0,0,1,1.93-1c0.75-.13,3.74-0.13,3.87-0.13a0.3,0.3,0,0,1,0,.6c-1.06,0-3.2,0-3.77.13a5.21,5.21,0,0,0-1.67.9A0.3,0.3,0,0,1,133.44,114.47Z"/></svg>