<svg xmlns="http://www.w3.org/2000/svg" viewBox="0 0 85.42188 96.75037"><g id="Layer_2" data-name="Layer 2"><g id="Layer_1-2" data-name="Layer 1"><path d="M61.41406,32.70313c-2.29687,0-3.07422-.32422-10.25781-4.51172-2.00391-1.16016-4.46484-2.57813-7.50781-4.31641,3.043-1.707,5.47265-3.125,7.47656-4.28516,7.28125-4.1875,8.05469-4.543,10.28906-4.543a8.82821,8.82821,0,1,1,0,17.65625Zm24.00782-8.79688v-.09766A23.96777,23.96777,0,0,0,61.41406,0C54.75,0,51.32031,1.96484,41.22266,7.832c-4.78907,2.76953-11.35547,6.57031-20.83594,11.69141a4.94748,4.94748,0,0,0,0,8.69922c9.60937,5.1875,16.24219,9.02343,21.0625,11.82422,10.28906,5.96093,13.39844,7.73437,19.99609,7.73437a23.97737,23.97737,0,0,0,23.97657-23.875" style="fill:#8b9af4"/><path d="M24.00781,31.38281c2.30078,0,3.07422.32032,10.293,4.50782,2.00391,1.16015,4.46485,2.57812,7.50391,4.28515-3.03906,1.707-5.46485,3.09375-7.47266,4.28516-7.28125,4.1875-8.05859,4.543-10.28906,4.543a8.81057,8.81057,0,1,1-.03516-17.6211Zm20.19532,24.8711c4.78515-2.76953,11.35546-6.57422,20.83593-11.72657a4.94747,4.94747,0,0,0,0-8.69921c-9.60937-5.1875-16.21093-9.02344-21.03125-11.82422-10.293-5.96094-13.39843-7.73438-20-7.73438A23.98661,23.98661,0,0,0,0,40.14453v.06641A23.97533,23.97533,0,0,0,24.00781,64.01953c6.668.0625,10.06641-1.90234,20.19532-7.76562" style="fill:#d6e0ed"/><path d="M61.41406,65.33984c-2.29687,0-3.07422-.32421-10.25781-4.51171C49.15234,59.668,46.69141,58.25,43.64844,56.51172c3.043-1.707,5.47265-3.125,7.47656-4.28516,7.28125-4.1875,8.05469-4.543,10.28906-4.543a8.82821,8.82821,0,1,1,0,17.65625ZM85.42188,56.543v-.09766A23.96777,23.96777,0,0,0,61.41406,32.63672c-6.66406,0-10.09375,1.96484-20.1914,7.82812-4.78907,2.77344-11.35547,6.57422-20.83594,11.69532a4.94748,4.94748,0,0,0,0,8.69922c9.60937,5.1875,16.24219,9.02343,21.0625,11.82421C51.73828,78.64453,54.84766,80.418,61.44531,80.418A23.93713,23.93713,0,0,0,85.42188,56.543" style="fill:#050035"/><path d="M24.00781,64.082c2.30078,0,3.07422.32422,10.293,4.51172,2.00391,1.16016,4.46485,2.57813,7.50391,4.28516-3.00781,1.707-5.46485,3.08984-7.47266,4.25-7.28125,4.1914-8.05859,4.543-10.28906,4.543A8.795,8.795,0,1,1,24.00781,64.082Zm20.19532,24.8711c4.78515-2.76954,11.35546-6.57032,20.83593-11.72657a4.94747,4.94747,0,0,0,0-8.69922c-9.60937-5.21875-16.24218-9.01953-21.0664-11.82421-10.28907-5.957-13.39453-7.73047-19.9961-7.73047A24.0268,24.0268,0,0,0,0,72.87891v.0625A23.9728,23.9728,0,0,0,24.00781,96.75c6.668.03125,10.06641-1.92969,20.19532-7.79687" style="fill:#586ffa"/></g></g></svg>